<?xml version="1.0" encoding="UTF-8"?>
<svg width="40px" height="38px" viewBox="0 0 40 38" version="1.1" xmlns="http://www.w3.org/2000/svg" xmlns:xlink="http://www.w3.org/1999/xlink">
    <title>icon / shopping_cart</title>
    <g id="WEBSITE-phase01" stroke="none" stroke-width="1" fill="none" fill-rule="evenodd" stroke-linejoin="round">
        <g id="weidmannsfleisch_HOME" transform="translate(-1739.000000, -37.000000)" stroke="#FFFFFF">
            <g id="icon-/-shopping_cart-white" transform="translate(1740.000000, 38.000000)">
                <g id="Group-9">
                    <path d="M29.9999,22.9995 L8.9999,22.9995 C5.6999,22.9995 2.5309,20.3415 1.9569,17.0915 L-0.0001,5.9995 L32.9999,5.9995" id="Stroke-1" stroke-width="1.53846154"></path>
                    <path d="M38.9999,-0.0005 L33.9999,-0.0005 L29.9999,22.9995 C29.2499,26.4875 27.2999,28.9995 23.9999,28.9995 L0.9999,28.9995" id="Stroke-3" stroke-width="1.53846154"></path>
                    <path d="M25.2499,32.9995 C25.2499,34.6565 23.9069,35.9995 22.2499,35.9995 C20.5939,35.9995 19.2499,34.6565 19.2499,32.9995 C19.2499,31.3435 20.5939,29.9995 22.2499,29.9995 C23.9069,29.9995 25.2499,31.3435 25.2499,32.9995 Z" id="Stroke-5" stroke-width="1.53846154"></path>
                    <path d="M9.2499,32.9995 C9.2499,34.6565 7.9069,35.9995 6.2499,35.9995 C4.5939,35.9995 3.2499,34.6565 3.2499,32.9995 C3.2499,31.3435 4.5939,29.9995 6.2499,29.9995 C7.9069,29.9995 9.2499,31.3435 9.2499,32.9995 Z" id="Stroke-7" stroke-width="1.53846154"></path>
                </g>
            </g>
        </g>
    </g>
</svg>